<?xml version="1.0" encoding="utf-8"?>
<!-- Generator: Adobe Illustrator 27.2.0, SVG Export Plug-In . SVG Version: 6.00 Build 0)  -->
<svg version="1.1" id="Calque_1" xmlns="http://www.w3.org/2000/svg" xmlns:xlink="http://www.w3.org/1999/xlink" x="0px" y="0px"
	 viewBox="0 0 1920 1080" style="enable-background:new 0 0 1920 1080;" xml:space="preserve">
<style type="text/css">
	.st0{fill:#BCB4FF;}
	.st1{fill:#FCF2E8;}
	.st2{fill:#F4B2C9;}
	.st3{fill:#E6FE74;}
</style>
<path id="Tracé_1001" class="st0" d="M941.43,396.37c0,0,14.5,0.83,22.48,25.76c7.98,24.93,1.89,97.23-14.45,102.77
	c-16.34,5.54-134.65,126.15-134.65,126.15s-17.14-18.12-8-49.15c9.14-31.02,30.75-77.28,29.91-108.03s4.43-75.07,27.98-93.07
	C888.25,382.79,940.88,375.86,941.43,396.37"/>
<path id="Tracé_1002" class="st1" d="M963.92,466.15c-0.56,2.15-1.22,4.22-1.31,5.14c-0.18,1.99-1.81,4.34-4.16,6.17
	c-1.36,1.06-3.27,1.06-4.63,0l-1.83-11.56C955.28,468.46,959.22,468.96,963.92,466.15"/>
<path id="Tracé_1003" class="st2" d="M936.22,607.39c-3.58,20.96-60.48,85.84-60.48,85.84s-40.88,0.16-45.7-1.64
	c-4.82-1.8-16.45-21.87-16.45-32.51c0-10.63,16.25-57.8,18.86-62.17c2.61-4.37,12.04-7.86,12.04-7.86
	c0.04-7.65,0.57-15.29,1.61-22.88c1.6-10.23,13.64-26.49,22.88-31.5s35.55-5.55,35.55-5.55S939.81,586.43,936.22,607.39
	 M1011.33,525.15c0,0-5.48,2.72-9.64,3.13c0,0-10.39,12.47-14.54,34.07c-4.16,21.61-9.56,66.28-7.06,72.93c0,0-5.61,18.91-7.9,20.15
	c0,0-3.53-0.83-4.57,0c-1.04,0.83-10.8,27.01-2.91,34.7h25.55c0,0-1.04,3.33-0.62,4.78s5.4,5.19,6.86,5.19h8.31
	c4.37,1.97,9.14,2.9,13.92,2.7c7.68-0.42,35.53-1.66,43.21-1.87c7.68-0.21,50.28,2.29,55.06-1.45c4.78-3.74,6.23-30.75,2.7-41.76
	c-3.54-11.01-38.81-48.42-42.78-50.29c-3.96-1.87-7.5-3.95-7.5-3.95s-1.66-4.57-4.57-4.57c0,0,0-3.95-1.87-4.57
	c0,0,0.83-5.82-3.95-7.48c0,0,1.25-4.78-1.25-8.31c-2.49-3.53-4.36-5.61-5.4-9.14s-2.29-15.38-9.14-18.91
	c-6.86-3.53-13.3-4.99-13.71-5.82c-0.41-0.83-0.21-4.15-3.12-4.78c0,0-1.25-6.02-4.99-6.86c0,0-4.36-9.61-6.65-10.62
	c-2.28-1.01-5.35,0.8-5.35,0.8L1011.33,525.15z"/>
<path id="Tracé_1004" class="st3" d="M875.74,693.22l18.03-35.54c0,0,24.02-57.35,13.86-118.71l-7.77-24.68l0,0
	c6.86,4.51,14.98,8.14,22.56,8.14c12.78,0,21.02-13.47,25.54-21.97c0,0,0.18,6.84,0.67,9.73c3.67,3.49,7.67,6.63,11.93,9.38
	c0,0,5.23-1.77,6.65-0.82c1.42,0.95,10.11,6.32,13.27,5.37c3.05-0.92,9.13-2.23,9.55-2.32c2.28-0.89,4.7-1.34,7.15-1.32
	c5.14,0.42,8.36-0.6,12.25,2.75l1.89,1.92c0,0-5.48,2.72-9.64,3.13c0,0-10.39,12.47-14.54,34.07s-9.55,66.28-7.06,72.93
	c0,0-5.61,18.91-7.9,20.15c0,0-3.53-0.83-4.57,0c-0.91,0.73-8.59,21.12-5.02,31.22c-7.17-0.01-14.02,0-15.9,0.07
	c-4.34,0.16-7.56,2.41-13.18,3.22C928.62,690.64,875.75,693.22,875.74,693.22"/>
<path id="Tracé_1005" class="st1" d="M954.37,467.33c-0.58,7.96-0.64,22.9-3.33,27.33c-3.09,5.08-12.03,27.77-28.61,27.77
	c-7.16,0-14.8-3.25-21.41-7.4c0.76,4.67,0.48,10.24,0.67,12.47c0.3,3.61-1.2,6.92-3.61,10.24c-2.41,3.31-10.39,34.16-10.39,34.16
	s-9.33-3.91-14.45-5.87c-3.25-1.3-6.26-3.16-8.88-5.48c0,0,11.44-25.98,11.74-33.81c0.3-7.83-28.15-34.92-28.6-37.78
	c-0.45-2.86,7.38-24.69,9.48-26.14c2.11-1.46,8.13,0.4,8.13,0.4c1.4-0.56,2.96-0.56,4.36,0c2.56,0.9,3.91,5.52,3.91,5.52
	c1.12,0.02,2.21,0.33,3.18,0.89c-0.63-2.99-1.23-5.86-1.75-8.41c2.17-0.42,4.31-0.98,6.4-1.68c2.63-0.88,5.08-3,7.32-5.83
	c3.99,0.01,11.59,1.05,15.29,1.43c4.77,0.48,5.7-2.33,5.7-2.33s-18.19-3.16-18.63-2.45l-0.01,0.01
	c7.47-11.75,12.03-30.09,12.03-30.09c5.79-2.53,19.72,0.18,25.15-0.18c5.43-0.36,6.69-4.89,8.16-5.05c0.8,9.52,2.34,18.97,4.6,28.25
	c-1.46-0.1-14.97,5.72-14.97,5.72c0.54,1.26,3.34,2.62,3.34,2.62c1.26,0.1,4.65-1.46,7.03-2.62c1.87-0.74,3.87-1.12,5.88-1.14
	C944.87,456.94,948.81,464.94,954.37,467.33 M875.74,693.22c24.95-0.55,54.57-2.82,57.77-3.28c5.63-0.8,8.84-3.05,13.18-3.22
	c1.88-0.07,8.73-0.08,15.9-0.07v-0.01c-2.57-7.29,0.7-19.91,3.07-26.67l0,0c0,0-18.94-3.48-23.57-1.87
	c-4.63,1.61-18.53,2.34-23.56,1.87s-21.95-4.13-24.77-2.3C893.77,657.68,881.86,680.66,875.74,693.22"/>
<path id="Tracé_1006" class="st1" d="M907.63,538.97l-7.77-24.68l0,0c6.86,4.51,14.98,8.15,22.56,8.15
	c12.78,0,21.02-13.47,25.54-21.97c0,0,0.18,6.84,0.66,9.73c0,0,9.49,9.16,16.4,11.57c-1.02,1.56-8.56,6.83-10.66,16.16
	s-18.69,60.11-31.95,69.45c0,0-6.85-12.32-12.67-24.13C910.68,568.46,909.97,553.61,907.63,538.97 M885.28,490.32
	c-1.25,0.17-2.52,0.01-3.69-0.45c-1.43-0.75,0-3.46,0-3.46c-0.23,2.11-2.63,3.61-2.63,3.61c3.31,1.51-1.05,3.16-1.05,3.16
	c3.16,0.45,3.16,4.36,3.16,4.36c1.35-1.65,4.21,1.5,4.21,1.5C882.15,493.14,885.28,490.32,885.28,490.32 M880.53,473.96
	c-1.46-0.15-2.91,0.35-3.98,1.37c-1.81,1.71-9.48,14.09-9.48,14.09s7.52-7.38,9.03-11.13c0.73-2.11,2.93-3.34,5.12-2.87
	L880.53,473.96z M872.75,467.08l-12.46,19.92c0,0,12.49-17.31,13.09-18.26L872.75,467.08z M865.11,463.23
	c-0.45,0.75-12.65,20.47-12.65,20.47l14.6-20.87L865.11,463.23z M934.47,496.32c0,0-9.56-4.54-11.57-3.56
	c-1,0.42-1.91,1.01-2.7,1.75c0,0-1.21-1.88-3.96-0.86s-12.9,6.65-12.9,6.65c4.58,3.48,10.25,5.21,15.98,4.88
	C928.87,504.6,932.25,499.99,934.47,496.32"/>
</svg>
