<?xml version="1.0" encoding="utf-8"?>
<!-- Generator: Adobe Illustrator 27.2.0, SVG Export Plug-In . SVG Version: 6.00 Build 0)  -->
<svg version="1.1" id="Calque_1" xmlns="http://www.w3.org/2000/svg" xmlns:xlink="http://www.w3.org/1999/xlink" x="0px" y="0px"
	 viewBox="0 0 1920 1080" style="enable-background:new 0 0 1920 1080;" xml:space="preserve">
<style type="text/css">
	.st0{clip-path:url(#SVGID_00000142135195307558114100000006977803250884533394_);}
	.st1{fill:#F4B2C9;}
	.st2{fill:#FCF2E8;}
	.st3{fill:#BCB4FF;}
	.st4{fill:#E6FE74;}
</style>
<g>
	<defs>
		<rect id="SVGID_1_" x="841.73" y="346.65" width="237.54" height="385.78"/>
	</defs>
	<clipPath id="SVGID_00000063619741524420115030000001138027598498786688_">
		<use xlink:href="#SVGID_1_"  style="overflow:visible;"/>
	</clipPath>
	<g id="Groupe_846" style="clip-path:url(#SVGID_00000063619741524420115030000001138027598498786688_);">
		<path id="Tracé_1042" class="st1" d="M855.82,560.54c-4.94-13.41-0.94-31.9-0.94-31.9l4.23,9.34
			c-6.35,24.27,6.83,32.45,15.53,37.62s11.3,10.35,11.3,10.35C881.48,578.66,860.77,573.95,855.82,560.54 M878.65,574.66
			c0,0-8-7.06-10.59-28.24l-3.76,1.88C864.3,548.3,869.71,569.24,878.65,574.66 M1064.52,596.46
			c-14.42-18.24-26.3-37.75-26.72-72.11s-14.45-47.78-14.45-47.78c1.32-3.69,3.33-7.1,5.93-10.05c3.45-3.51,7.22-24.73,1.88-31
			c-5.33-6.27-16.63-7.09-16.63-7.09s12.55-4.38,19.29,7.86c0,0-5.59-13.91-20.21-12.23c-1.11-5.08-3.1-13.66-5.35-20.85
			c-3.45-10.98-42.67-42.04-58.99-49.26c-16.32-7.22-37.97,5.96-51.15,9.1c-7.11,1.69-12.67,5.5-17.85,10.9
			c-24.13,9.83-32.04,53.74-32.04,53.74c8.22-31.48,20.85-44.59,27.85-48.98c-2.95,3.62-5.88,7.74-9.02,12.27
			c-10.04,14.43-14.96,36.17-15.45,37.46c0,0-1.39,4.28-2.78,8.14c10.73,10.94,54.25,44.27,85.91,75.45
			c0.91,10.9,3.56,26.87,7,43.17c-25.01-3.63-47.51-5.36-53.54-0.79c0,0,13.47,52.65,5.53,73.77s-44.39,72.42-18.09,104.21h161.19
			c0-4.52-1.02-22.85-2.49-45.69c13.09,11.06,22.58,18.78,22.58,18.78S1078.94,614.7,1064.52,596.46"/>
		<path id="Tracé_1043" class="st2" d="M915.93,650.77c4.36-7.7,5.64-16.93,1.8-32.59c-3.84-15.65-19.07-51.72-22.2-56.78
			c-3.13-5.06-11.57-6.65-12.18-6.61c25.07-1.48,45.42-36.62,50.32-40.27c6.3-4.7,28.16-18.43,32.25-19.06
			c2.5-0.38,12.93,7.79,19,5.85c0,0-9.09,36.67-16.62,47.82c-5.66,8.38-7.22,27.81-7.22,27.81s2.8-15.77,7.61-24.8
			c2.91-5.45,5.46-8.54,9.42-16.78c-4.53,9.76-9.35,20.83-7.96,29.13c0,0,1.41-17.22,14.8-36.57c0.16,10.42,0.54,20.12,1.05,27.02
			c1.03,14.01,6.93,24.23,14.11,33.98c7.19,9.75,34.39,25.15,40.55,39.78s23.86,103.69,23.86,103.69H885.95
			c0,0,21.26-59.28,22.28-64.67S911.57,658.47,915.93,650.77"/>
		<path id="Tracé_1044" class="st2" d="M974.43,463.38c3.61,10.39-0.15,26.76-0.15,26.76c1.26-7.24-5.98-23.61-7.87-29.91
			c-1.36-4.52-0.77-15.7-0.33-21.64c-4.9-4.56-21.63-20.86-25.94-34.56c3.26,3.68,6.75,7.15,10.46,10.39
			c-9.04-12.08-22.73-32.92-23.55-34.48c0,0-15.11-5.04-34.64,1.57c0,0-11.96,0.32-23.3,13.54c-6.63,7.74-13.04,21.61-17.1,32.24
			c3.65-2.75,12.05-3.37,12.05-3.37c-0.59,5.35-3.62,6.72-3.62,6.72c-4.76-0.06-11.64,5.91-11.64,5.91
			c-0.51,1.66-0.88,3.37-1.1,5.09c-1.23,7.22,2.52,11.34,2.52,11.34c-5.61,7.43-8.6,16.51-8.5,25.82
			c0.01,4.16,2.24,26.58,10.27,43.05c6.44,13.2,7.72,28.03,14.6,31.26c16.06,7.56,74.83-6.7,86.56-22.93
			c4.6-6.37,13.95-28.23,18.04-28.86c2.73,4.49,9.79,4.49,13.72-0.02C986.17,480.77,974.43,463.38,974.43,463.38 M919.38,423.54
			c-1.65-0.3-9.72,0.45-11.66,1.05c-1.89,0.58-11.55,1.3-12.49,1.48c-0.05,0.13-0.08,0.15-0.06,0.01c0.09-1.94,0.35-3.87,0.79-5.76
			l1.59-1.86c0,0-1.47,5.11-2.1,7.01c0.8-1.79,3.17-6.91,3.91-7.16c0.9-0.3,16.59-1.64,18.98-1.04c2.39,0.6,13,10.31,13,10.31
			S921.02,423.84,919.38,423.54"/>
		<path id="Tracé_1045" class="st2" d="M880.06,484.84c0,0-2.88-4.22-5.55-4.22s-3.33,0.67-2.99,1.55c0.6,1.18,2.04,1.65,3.23,1.05
			c0.03-0.02,0.07-0.04,0.1-0.05C876.39,482.4,880.06,484.84,880.06,484.84"/>
		<path id="Tracé_1046" class="st2" d="M864.07,482.07c0.28-0.3,3.89,2.33,3.67,3.55c-0.45,1.33-1.07,2.6-1.83,3.77
			c0,0,0.28-2.33,0-2.66C865.63,486.39,862.4,483.84,864.07,482.07"/>
		<path id="Tracé_1047" class="st3" d="M892.59,509.13c-1-1.11-19.08-11.32-20.63-11.65s-5.55,2.22-5.55,2.22
			c-0.87-0.46-1.83-0.72-2.82-0.78c-1.38,0-3.84,2.22-5.39,6.32c-1.55,4.1,0,8.77,0,8.77c-1.44,4.21,0.67,7.32,4.55,7.77
			s8.43-1.22,10.87-2.55s10.09-3.44,13.64-3.44s6.43-3.55,6.43-3.55C893.64,511.12,893.25,510.04,892.59,509.13 M861.42,512.69
			c0,0,2.96-3.22,4.25-4.99c0,0,3.76,0.89,5.8,0s5.92-0.67,7.81,0c1.35,0.6,2.53,1.51,3.44,2.67
			C882.72,510.36,864.2,510.13,861.42,512.69 M1072.89,732.39H869.52c0,0,30.32-59.14,30.32-67.13c0-7.99,9.65-17.64,13.48-24.96
			c3.83-7.32-9.82-41.26-11.48-46.25c-1.67-4.99,3.77-10.09,3.77-10.09s1.39-0.15,3.78-0.43c1.38,0.08,2.54,1.08,2.83,2.43
			c0,0,3.79-5.72,9.24-2.16c0,0,4.5-3.08,8.77-1.42c0.99-1.06,2.28-1.8,3.69-2.1l0.89-0.14c1.52-0.12,3.05,0.17,4.42,0.83
			c2.74-1.78,6.14-2.22,9.24-1.2c0,0,5.45-3.32,8.77-0.95c0,0,5.45-5.23,10.66-4.15c0,0,1.19-3.66,6.05-2.72
			c-0.04-1.13,0.17-2.26,0.61-3.3c0.67-0.6,1.3-1.23,1.9-1.88c0.92-0.3,1.9-0.31,2.82-0.03c-0.33-1.04-0.4-2.14-0.21-3.21
			c0.35-0.5,0.68-1,0.99-1.51c0.76-0.46,1.66-0.64,2.53-0.49c0,0-1.18-6.64,3.08-4.98c0,0-1.41-5.92,1.9-5.45
			c-1.29-1.21-2.04-2.9-2.06-4.67c-0.09-1.72,3.2,3.03,6.52,6.35c3.32,3.33,3.66,16.64,8.98,26.62s40.93,33.61,45.59,42.26
			C1051.26,630.31,1072.89,732.38,1072.89,732.39"/>
		<path id="Tracé_1048" class="st4" d="M925.96,634.7c-0.35,3.16-7.25,17.18-7.25,17.18s1.99-10.52,3.75-15.07
			s-7.71-45.92-7.71-47.33C914.74,589.47,926.31,631.54,925.96,634.7 M922.8,587.72c-0.88-1.3,10.87,46.98,10.87,46.98
			S929.46,597.54,922.8,587.72 M931.92,585.95c-1.43-2.1,11.22,44.54,10.87,48.74C942.79,634.7,942.44,601.37,931.92,585.95
			 M1006.24,732.38c0,0-5.26-34.23-5.61-32.48c-0.35,1.76-8.42,28.5-14.02,32.48H1006.24z M950.5,605.25
			c0.7,1.05,3.15,31.9,1.75,36.46c-1.4,4.56-9.8,25.24-9.46,29.45c0,0,3.85-6.66,7-12.27c3.15-5.61,5.96-14.02,5.96-20.68
			C955.75,631.55,950.49,605.25,950.5,605.25 M955.75,599.64c0,0,8.06,34,7.71,38.56C963.46,638.21,965.56,620.01,955.75,599.64
			 M965.92,587.7c0.7,2.83,5.67,34.73,9.85,39.64s10.84,17.23,10.84,17.23s-4.21-14.77-7.71-19.33
			C975.38,620.67,965.92,587.7,965.92,587.7 M984.94,616.13c2.54,4.92,26.55,18.57,26.55,18.57s-17.88-15.07-23.13-18.57
			c-5.26-3.49-14.42-35.77-14.42-35.77S982.4,611.21,984.94,616.13 M1032.98,625.69c6.21-4.46,11.36-7.04,11.6-6.77l-2.7-2.8
			c-3.95,1.83-7.62,4.22-10.88,7.11l-0.1,0.09c-0.62,0.54-1.22,1.09-1.81,1.65c-6.31,6.19-11.54,13.38-15.49,21.29
			c3.88-7.58,11.07-14.33,17.55-19.22c6.55,7.99,13.43,29.04,13.43,29.04C1042.23,636.78,1036.23,629.37,1032.98,625.69
			 M1044.58,712.87c-1.62-12.27-15.49-65.2-15.49-65.2C1027.75,660.29,1044.58,712.87,1044.58,712.87 M992.72,602.8
			c3.65,3.86,27.89,19.98,27.89,19.98s-20.33-15.78-24.19-19.98c-3.86-4.21-15.42-33.31-15.42-33.31S989.06,598.94,992.72,602.8
			 M998.52,589.47l-9.47-23.48C990.56,580.89,998.52,589.47,998.52,589.47 M928.21,661.62c0.06-2.34-21.63,54.49-21.63,54.49
			S927.62,686.94,928.21,661.62"/>
	</g>
</g>
</svg>
