<?xml version="1.0" encoding="utf-8"?>
<!-- Generator: Adobe Illustrator 27.2.0, SVG Export Plug-In . SVG Version: 6.00 Build 0)  -->
<svg version="1.1" id="Calque_1" xmlns="http://www.w3.org/2000/svg" xmlns:xlink="http://www.w3.org/1999/xlink" x="0px" y="0px"
	 viewBox="0 0 1920 1080" style="enable-background:new 0 0 1920 1080;" xml:space="preserve">
<style type="text/css">
	.st0{clip-path:url(#SVGID_00000148647555986198479720000013163132363238069650_);}
	.st1{fill:#FCF2E8;}
	.st2{fill:#5B7FBD;}
	.st3{fill:#BCB4FF;}
	.st4{fill:#F4B2C9;}
</style>
<g>
	<defs>
		<rect id="SVGID_1_" x="821.6" y="312.32" width="278.89" height="454.45"/>
	</defs>
	<clipPath id="SVGID_00000134959395525106208380000005956067328542107793_">
		<use xlink:href="#SVGID_1_"  style="overflow:visible;"/>
	</clipPath>
	<g id="Groupe_850" style="clip-path:url(#SVGID_00000134959395525106208380000005956067328542107793_);">
		<path id="Tracé_1054" class="st1" d="M928.01,394.08c6.19-5.09,16.94-7.28,23.88-2.16c2.51,1.85,4.1,4.67,5.48,7.47
			c2.91,5.87,5.23,12.02,6.93,18.35c0.9,3.38,1.51,7.37-0.73,10.06c-2.76,3.3-7.9,2.59-12.14,1.81c-8.2-1.5-16.54-2.08-24.87-1.75
			c-3.37,0.31-6.76,0.26-10.11-0.14c-3.33-0.56-6.66-2.09-8.58-4.87c-2.46-3.57-2.08-8.56,0.03-12.35
			C912.05,403.06,921.6,399.35,928.01,394.08 M877.74,478.82c-1.22,3.85-5.49,12.44-5.6,16.48c-0.26,9.69,10.81,17.34,15.04,26.06
			c2.12,4.37,4.31,8.8,7.55,12.42c8.05,9.02,20.99,11.58,33.02,12.7c18.24,1.71,37.54,1.12,53.54-7.8c3.95-2.2,7.74-5,9.96-8.94
			c2.42-4.29,2.74-9.54,5.3-13.75c1.18-1.95,2.79-3.6,4.07-5.48c3.42-5.01,4.32-11.41,3.69-17.45c-0.63-6.03-2.65-11.83-4.66-17.56
			c-1.03-3.31-2.41-6.5-4.1-9.53c-1.71-2.63-3.67-5.09-5.84-7.35c-5.76-6.39-11.52-12.78-17.29-19.17c-3.54-3.93-7.29-8-12.25-9.85
			c-7.52-2.81-15.85,0.11-23.34,3.02l-12.62,4.9C903.57,445.54,884.57,457.28,877.74,478.82"/>
		<path id="Tracé_1055" class="st2" d="M1022.33,654.01c20.61,3.78,25.42,43.28,30.92,60.46c5.5,17.18,6.18,52.22,6.18,52.22
			H830.99c0-7.78,3.02-14.47,4.72-20.18c0.62-2.1-0.93-21.23-0.89-23.08c0.18-6.86,4.15-18.78,4.83-23.25s6.9-17.71,6.9-17.71
			c-2.06-8.59,2.19-6.36,4.6-9.45c2.41-3.09,3.22-11.28,3.22-11.28l18.65-1.84C873.03,659.89,1001.72,650.22,1022.33,654.01
			 M882.3,478.82l-1.18,0.81c-0.99,1.44-2.3,2.63-3.83,3.49c-0.93,0.27-1.79,0.73-2.52,1.37c-0.29,0.4-0.53,0.84-0.71,1.3
			c-1.55,3.13-5.34,4.4-8.47,2.86c-1.61-0.8-2.8-2.24-3.28-3.97c-0.86-3.1,0.7-6.27,1.71-9.31c0.44-1.31,1.01-2.69,2.3-3.18
			c0.39-0.51,0.87-0.94,1.42-1.27c-1.17,0.2-2.37,0.06-3.46-0.41c-1.1-0.51-1.69-1.74-1.39-2.92c-0.39,0.08-0.79-0.07-1.03-0.38
			c-1.65,0.67-3.44,0.92-5.22,0.74c-1.88-0.48-3.19-2.18-3.19-4.12c-0.73,1.1-0.69,2.55,0.11,3.61c0.8,1.01,1.71,1.92,2.73,2.71
			c2.35,2.19,3.91,5.09,4.42,8.27c-0.97-2.16-2.3-4.13-3.95-5.82c-1.32-1.29-2.78-2.44-4.35-3.42c-0.99-0.42-1.9-0.98-2.72-1.67
			c-0.75-0.75-0.79-1.96-0.08-2.76c-3.09-0.09-6.04-1.29-8.31-3.38c-2.24-2.08-2.7-4.62-3-7.66c-3.77-1.74-6.29-5.4-6.56-9.55
			c-0.13-1.12,0.14-2.26,0.77-3.2c0.79-1.03,2.19-1.49,2.86-2.61c0.28-0.58,0.49-1.19,0.61-1.82c0.68-2.53,3.34-4.89,5.66-6.12
			c0.29-3.01,0.83-5.98,1.61-8.9c0.23-1.06,0.63-2.08,1.17-3.02c1.09-1.73,3.02-2.84,3.95-4.65c1.13-2.19,2.1-5.51,0.45-7.34
			c-0.93-0.88-2.17-1.34-3.45-1.28c-1.26-0.04-2.53,0.16-3.78,0c-2.38-0.51-4.46-1.96-5.78-4.01c2.75,0.59,6.71,0.48,8.93-1.24
			c-3.41,0.07-6.7-1.22-9.16-3.58c1.46,0.35,2.88-0.63,4.06-1.55c1.75-1.36,3.61-2.88,4.17-5.03c0.24-1.37,0.23-2.77-0.02-4.14
			c-0.39-3.69-0.12-7.78,2.38-10.52c3.15-3.45,9.07-3.9,11.23-8.04c0.3-0.13,1.02-0.81,1.35-0.78c0.63-0.85,0.94-1.89,0.89-2.94
			c0.05-1.73-0.18-3.46-0.15-5.18c-0.05-1.74,0.44-3.45,1.41-4.9c1.31-1.48,3.06-2.5,5-2.89c2.41-0.67,5.32-1.31,7.66-0.43
			c-0.59-4.99,1.23-9.97,4.89-13.41c3.69-3.42,8.8-4.87,12.82-7.9c3.15-2.37,5.52-5.63,8.57-8.14c3.04-2.51,8.52-4.15,12.18-2.7
			c1.06-1.91,2.37-3.95,4.48-4.54c2.3-0.65,4.66,0.68,6.67,1.98c2.01,1.3,5.38,3.12,7.77,2.91c3.71-0.34,7.49-0.69,10.94-2.13
			c1.86-0.78,3.59-1.86,5.48-2.55c2.06-0.75,4.25-1.03,6.43-0.83c1.08,0.08,2.14,0.36,3.12,0.82c1.75,0.88,2.97,2.51,4.36,3.89
			c2.88,2.85,6.59,4.68,9.83,7.11c3.24,2.43,6.17,5.86,6.3,9.91c3.25,2.87,5.24,6.91,5.53,11.25c0.26,4.18-1.21,8.29-4.07,11.35
			c-0.45,0.64-1.05,1.16-1.76,1.51c1.66,1,2.94,2.52,3.63,4.33c0.68,1.79,1.45,3.55,2.32,5.26c1.49,2.51,3.93,4.44,5.01,7.15
			c1.47,3.68,0.16,8.03,1.67,11.69c1.34,3.26,3.2,5.77,4.72,8.95c2.06,4.36,2.46,9.33,1.15,13.97c-1.04,3.64,4.91,6.47,6.38,9.95
			c2.05,4.86-1.38,10.38-0.72,15.61c0.51,4.03,3.34,7.32,5.11,10.97c0.55,1.14,1,2.32,1.35,3.54c1.01,3.54,5.57,7.37,4.75,10.95
			c-0.47,2.05-2.76,4.33-3.91,6.09c-1.79,2.8-3.72,5.51-5.78,8.11c-0.99,1.21-1.1,2.43-1.8,3.84c-0.7,1.4-3.19,3.99-2.71,5.48
			c-0.66-2.22-3.2-1.82-3.83-4.06c-0.38-1.34-0.54,0.3-0.6-1.27c-0.61,2.89,1,1.95-1.35,3.74c-0.6,0.45-4.44-2.82-4.69-2.12
			c0.26-2.28-0.18-4.58-1.26-6.6c-1.32,2.18-1.76,4.79-1.24,7.29c-1.66-2.56-2.53-5.56-2.51-8.61c-0.39,2.79-1.14,5.52-2.25,8.12
			c-0.6,1.56-1.48,2.99-2.59,4.23c-1.18,1.2-2.77,1.89-4.45,1.93c1.43-1.1,2.36-2.73,2.6-4.52c0.22-1.77,0.21-3.56-0.04-5.33
			c-0.14-1.43-0.15-2.65-0.29-4.08c-0.59,1.93-0.23,4.12-1.15,5.92c-0.84,1.63-2.54,2.59-3.99,3.7c-3.05,2.42-5.27,5.74-6.34,9.49
			c-1.47-7.48,3.46-15.27,1.45-22.62c-0.82-3.01-2.74-5.6-3.92-8.49c-1.63-3.99-1.81-8.4-1.83-12.71c-0.02-3.46,0.16-7.24,2.44-9.85
			l-42.62,5.81c-0.21,2.07-0.77,4.08-1.65,5.96c-0.92,1.37-2.35,2.31-3.98,2.62c0.77,2.44,1.23,4.97,1.37,7.52
			c0.17,1.44-0.04,2.9-0.59,4.24c-0.41,0.75-0.92,1.44-1.53,2.04c-1.14,1.36-2.7,2.3-4.43,2.7c0.8,2.94,2.17,5.73,2.55,8.74
			s-0.52,6.5-3.18,7.98c-2.75,1.54-6.02,0.49-9.17,0.49c-0.1,0-0.21-0.45-0.31-0.45c1.17-1.84,0.92-3.9,0.31-5.99
			c-0.19,1.66-1.12,3.15-2.53,4.06c-0.35,0.19-0.72,0.31-1.08,0.49c-0.99,0.56-1.88,1.28-2.62,2.13c-1.04,1.07-2.92,1.54-2.83,3.03
			c-0.39-1.13,0.28-2.33,0.9-3.35c0.62-1.02,1.25-2.26,0.78-3.36c-0.2-0.4-0.46-0.76-0.77-1.09c-2.38-2.85-4.05-6.65-3.55-10.33
			c-0.82,0.35-1.68,0.61-2.56,0.76L882.3,478.82z M857.3,372.07c-3.48,1.65-7.43,2.89-9.73,5.98c-1.46,1.99-2.04,4.5-1.6,6.93
			c0.4-1.21,1.66-2.04,2.64-2.85c2.8-2.27,5.4-4.77,7.78-7.47C857.06,373.98,857.39,373.03,857.3,372.07 M908.4,478.67
			c-0.46-1.15-1.09-2.23-1.88-3.19c-0.94-0.97-1.57-2.2-1.81-3.53c0.02,2.37-0.09,5.17,0.15,7.53c0.14,0.91,0.16,1.83,0.05,2.75
			c-0.18,1.1-1.34,2.48-1.89,3.45c1.07-0.24,2.11-0.61,3.09-1.1c0.99-0.49,1.78-1.3,2.27-2.29
			C908.84,481.13,908.85,479.83,908.4,478.67 M950.03,411.86c-2.22-3.05-5.43-6.02-9.21-6.84c-6.55-1.42-9.17,8.67-8.18,9.99
			c1.31,2.37,1.66,5.66,4.36,5.78c2.66,0.12-1.63-0.8,0.99-1.3s5.39-1.27,7.83-0.23C951.89,421.85,953.27,416.31,950.03,411.86"/>
		<path id="Tracé_1056" class="st3" d="M996,680.07c-3.82,0-35.12-1.98-37.76,0c-2.64,1.98-2.97,3.95-2.97,3.95
			s-85.35-3.62-93.91-13.84c0,0-5.68-47.57-7.99-63.17s-8.18-19.68-9.16-32.53c0,0-3.23-40.84-1.91-43.15
			c1.32-2.3,38.13-15.74,37-32.2c0,0,9.08,16.83,22.26,23.08s44.82,1.98,62.28-1.65c17.46-3.63,30.23-16.84,30.23-16.84
			c18.53-20.7,42.1,11.01,41.43,29.51c-0.67,18.5-7.34,99.52-8.02,125.43c-0.14,5.28-18.27,14.38-18.71,22.91
			C1007.43,681.73,996.97,680.07,996,680.07"/>
		<path id="Tracé_1057" class="st4" d="M883.73,472.75c0.41-0.04,0.81-0.1,1.21-0.17c-0.45,0.93-0.88,1.87-1.28,2.83
			C883.83,474.53,883.86,473.63,883.73,472.75 M836.82,740.57c0.18-6.86,6.53-24.05,7.21-28.51c0.68-4.47,10.99-15.11,10.99-15.11
			c-2.06-8.59,1.03-11.34,3.44-14.43c2.41-3.09,0-10.69,0-10.69h5.02c-0.8-0.42-1.52-0.98-2.13-1.65c0,0,17.46-43.94,15.15-59.54
			c-2.31-15.6-16.47-25.81-17.47-38.66c0,0-1.32-24.71,0-27.02s21.39-29.36,20.25-45.82c-0.24-1.78-0.34-3.58-0.29-5.38
			c0.18-4.04,0.93-8.04,2.22-11.87c0.62-1.98,1.35-3.88,2.12-5.74c-0.37,0.57-0.81,1.1-1.31,1.56c-0.85,0.68-1.59,1.47-2.2,2.37
			c0.05-1.69-0.17-3.38-0.66-5c-0.17-0.53-0.46-1.02-0.85-1.42c-0.84-0.78-2.11-0.81-3.24-0.99c-1.13-0.18-2.98,0-3.15-1.14
			c-0.28,0.84-0.63,1.65-1.04,2.43c-0.41,0.8-0.41,1.75,0,2.54c0.53,0.66,1.34,1.03,2.18,1.01c0.83-0.03,1.66-0.01,2.49,0.05
			c1.49,0.31,2.69,1.41,3.12,2.87c-0.27-0.31-0.66-0.51-1.07-0.55c-1.14-0.18-2.29-0.2-3.43-0.07c-1.31,0.15-2.6,0.51-3.92,0.6
			c-2.38,0.45-4.67-1.12-5.12-3.49c-0.03-0.14-0.05-0.28-0.06-0.42c-0.2-1.55,0.25-3.12,1.25-4.32c-2.38,0.95-4.63,1.91-6.6,2.84
			c0.47,1.08,0.8,2.22,0.99,3.38c-0.44-1.08-1.01-2.1-1.7-3.04c-2.02,0.87-3.89,2.03-5.56,3.45c-5.05,5.18-14.8,13.25-14.47,19.64
			c0,0-10.43,13.46-10.43,20.52c0,7.07-7.4,64.59-6.05,75.36s3.37,52.15,3.37,52.15s-6.39,31.96-3.53,52.15
			c2.62,18.5,9.61,42.64,13.36,47.84C836.32,744.58,836.7,742.59,836.82,740.57 M996,469.36c0.5,2.47,0.8,4.97,0.9,7.48
			c0.45-1.51,1.17-2.94,2.13-4.19c1.12-1.48,2.57-2.73,3.42-4.38c1.35-2.64,0.97-5.8,0.55-8.73c-0.66,0.77-1.64,1.17-2.65,1.1
			c-0.89-0.21-1.74-0.57-2.52-1.06c0.31,1.45-0.17,3.04-0.19,4.52C997.6,465.96,997.03,467.79,996,469.36 M1100.42,657.27
			c-1.01-9.76-3.36-15.14-3.36-15.14s2.35-0.16-0.34-6.13c-2.69-5.98-4.37-9.01-4.04-11.36c0.34-2.36,6.06-5.05-0.34-25.91
			c-6.39-20.86-17.84-87.47-23.89-100.6c-6.05-13.13-14.13-36-21.53-36.34c0,0-3.03-6.39-8.74-6.39s-8.95,0-12.05-1.68
			c-1.52-0.83-9.66-2.36-18.39-3.79c1.01,3.55,1.12,7.31,0.31,10.91c-0.45,2.17-1.26,4.26-2.39,6.16c-1.63,2.51-3.4,4.92-5.3,7.23
			c-1.05,1.16-1.97,2.44-2.74,3.81c-0.8,1.34-1.04,2.95-0.66,4.46c-0.66-2.23-1.59-4.37-2.21-6.61c-0.42-1.47-0.66-2.99-0.74-4.52
			c-0.61,2.92-2.24,5.53-4.6,7.37c-0.51,0.39-0.95,0.87-1.3,1.4c1.3,9.12,3.21,18.01,5.98,23.59c7.76,15.58,17.52,25.01,16.84,43.51
			s-9.76,85.45-10.43,111.36c-0.67,25.91-6.06,104.3-6.06,104.3c3.65,1.59,7.79,1.59,11.44,0c6.06-2.69,22.88-6.73,25.57-7.07v-7.39
			l28.93-4.37l32.3-45.76C1092.68,698.31,1101.43,667.02,1100.42,657.27 M926.78,425.79c-0.48,0.28-0.89,0.66-1.2,1.11
			c-0.28,0.56-0.44,1.17-0.45,1.8c-0.35,3.69-0.36,7.88,2.26,10.49c1.86,1.85,4.61,2.43,7.2,2.8c8.31,1.19,17.36,0.98,24.33-3.7
			c1.8-1.11,3.28-2.68,4.29-4.55c1-1.9,1-4.17,0.02-6.07c-1.09-1.63-2.76-2.78-4.66-3.23c-1.86-0.54-3.81-0.71-5.69-1.16
			c-2.16-0.52-4.22-1.42-6.38-1.97c-1.76-0.59-3.65-0.66-5.45-0.21c-1.21,0.6-2.47,1.08-3.77,1.46
			C933.69,423.25,929.9,423.76,926.78,425.79"/>
		<path id="Tracé_1058" class="st1" d="M1056.11,687.61c0,0,5.78-6.16,10.2-5.01c4.43,1.16,9.24,7.51,15.6,9.05
			c6.36,1.54,8.27,2.42,9.05,5.2c0,0-2.31,59.12-1.35,61.82c0.96,2.7,3.27,8.01,3.27,8.01h-33.47c1.27-4.59,2.22-9.26,2.85-13.98
			C1062.85,746.92,1056.11,687.61,1056.11,687.61 M940.49,428.85c-1.95,0.23-3.92,0.06-5.8-0.5c-1.76-0.49-4.6,0.82-4.28,1
			c3.27,1.86,14.72,0.64,14.72,0.64C944.29,428.59,942.79,428.59,940.49,428.85 M975.48,390.55c0.37,7.37,0.55,15.3-2.39,23.78
			c-2.95,8.48-4.98,19.91-13.09,26.18c-8.11,6.27-13.46,11.25-24.15,11.25c-6.19,0.09-12.08-2.62-16.04-7.37
			c0.8-0.79,1.39-1.76,1.72-2.83c0.64-2.06,1.28-4.12,1.93-6.19c0.13-0.38,0.23-0.76,0.3-1.16c0.11-0.78-0.03-1.58-0.4-2.28
			c1.62-2.47,2.34-5.42,2.04-8.36c0.72,0.36,1.51,0.89,2.29,0.67c0.79-0.28,1.48-0.8,1.95-1.5c1.12-1.58,1.79-3.44,1.95-5.38
			c0.15-1.92,0.13-3.86-0.07-5.78c0.57,0.17,0.99-0.25,1.26-0.78c1.26-2.48,1.56-5.34,0.84-8.02c-0.14-0.51-0.31-1.01-0.41-1.52
			c-0.1-0.57-0.15-1.14-0.16-1.71c-0.05-1.29-0.06-2.72,0.81-3.66c2.99-3.24,4.73-6.66,2.79-10.61c-0.78-1.6-2.06-2.98-2.47-4.72
			c-0.18-1.14-0.23-2.29-0.15-3.44c-0.01-2.52-0.62-5-1.77-7.24c-0.54-1.04,0.63-2.49,0.67-3.65c0.05-1.11,0.78-1.61,1.03-2.69
			c0.34-1.21,0.34-2.49-0.01-3.69c-0.39-1.12-1.27-2.27-0.82-3.38c2.88-1.29,4.77-4.11,4.85-7.27c-0.09-0.75,0.04-1.52,0.38-2.2
			c1.5,1.2,4.82,1.32,6.58,0.53c2.98-1.35,6.4-2.71,9.42-1.45c1.34,0.73,2.63,1.55,3.86,2.46c1.99,1.16,4.32,1.57,6.59,1.16
			c1.15,1.92,3.18,4.55,5.11,5.68c-0.35,2.87-0.01,5.79,1,8.5c1.01,2.51,2.24,4.93,3.67,7.23c1.26,2.16,2.51,4.33,3.77,6.49
			C976.28,381.57,975.28,386.04,975.48,390.55 M942.01,414.21c1.94,2.02,4.38,2.11,3.79,0.92
			C945.21,413.95,941.84,414.03,942.01,414.21 M935.91,414.11c-0.38-0.7-1.12-1.14-1.92-1.15
			C932.54,412.88,932.31,415.26,935.91,414.11 M952.71,429.72c-1.28,0.35-9.4-5.19-10.27-5.36c-0.87-0.17-2.93,0.65-3.72,0.56
			c-0.8-0.09-3.17-1.3-3.88-1.49c-0.71-0.18-8.49,3.49-8.51,3.8c0.14,1.12,0.42,2.23,0.83,3.28c0.42,1.19,3.54,5.83,12.5,6.03
			c6.06,0.14,8.38-2.58,9.24-4.35c0.45-0.91,1.27-1.58,2.26-1.84C951.7,430.21,952.22,430,952.71,429.72 M972.76,388.02
			c0,0-5.73-7.24-8-7.92s-17.8,1.94-17.8,1.94c-0.31,0.09,2.56,2.95,4.58,2.95s10.36-2.27,13.05-1.47S972.77,388.02,972.76,388.02"
			/>
	</g>
</g>
</svg>
