<?xml version="1.0" encoding="utf-8"?>
<!-- Generator: Adobe Illustrator 27.2.0, SVG Export Plug-In . SVG Version: 6.00 Build 0)  -->
<svg version="1.1" id="Calque_1" xmlns="http://www.w3.org/2000/svg" xmlns:xlink="http://www.w3.org/1999/xlink" x="0px" y="0px"
	 viewBox="0 0 1920 1080" style="enable-background:new 0 0 1920 1080;" xml:space="preserve">
<style type="text/css">
	.st0{clip-path:url(#SVGID_00000143604960370958489520000010136550744186507668_);}
	.st1{fill:#5B7FBD;}
	.st2{fill:#FCF2E8;}
	.st3{fill:#F4B2C9;}
</style>
<g>
	<defs>
		<rect id="SVGID_1_" x="806.98" y="332.16" width="306.95" height="372.06"/>
	</defs>
	<clipPath id="SVGID_00000021824646225551792000000005935684589552181695_">
		<use xlink:href="#SVGID_1_"  style="overflow:visible;"/>
	</clipPath>
	<g id="Groupe_848" style="clip-path:url(#SVGID_00000021824646225551792000000005935684589552181695_);">
		<path id="Tracé_1049" class="st1" d="M963.98,347.54c0.86,0.46,29.13-7.97,57.35,11.96c28.21,19.93,22.08,57.04,15.03,69.92
			c0,0,13.65,34.8,1.77,60.11s8.8,82.07,13.7,90.66c4.9,8.59,22.28,49.77,7.66,69.12c-8.12,10.75-215.56-9.41-214.64-8.8
			s10.44-75.03,21.11-111.99c14.08-48.78,3.58-106.76,15.23-134.97C892.84,365.33,935.77,332.52,963.98,347.54"/>
		<path id="Tracé_1050" class="st2" d="M996.21,515.12l-2,24.8c0,0,3.21,8.12-3.85,13.96c-7.06,5.83-70.92-3.94-70.92-3.94
			s4.66-31.44,5.45-40.19s-1.16-24.42-0.91-24.68C957.76,450.86,996.21,515.12,996.21,515.12"/>
		<path id="Tracé_1051" class="st3" d="M1113.93,669.39c-149.11,77.54-306.95,0-306.95,0c0.52-4.46,9.12-53.38,15.64-61.2
			c6.52-7.82,23.19-16.94,41.16-21.37c17.98-4.43,38.04-21.11,38.04-21.11v-3.39c0-1.3,3.39-3.91,6.25-6.6
			c2.87-2.69,5.47-17.89,5.47-21.54s2.35-5.73,5.88-6.52c1.27-0.25,2.58-0.25,3.85,0.01c1.84,0.22,3.28,1.71,3.42,3.57
			c1.78-0.7,3.76-0.7,5.54,0c1.93,0.73,3.55,2.12,4.56,3.91c1.6-0.18,3.21-0.05,4.76,0.39c0.65,0.3,1.3,0.6,1.98,0.88
			c1,0.61,1.82,1.46,2.39,2.49c0,0,6.03-0.33,7.83,3.26c0,0,6.52-1.95,9.62,1.96c0,0,4.24-3.91,7.66,0c0,0,2.28-4.89,6.36-2.61
			c0,0,1.3-2.45,4.73-0.81c0.66-0.77,1.48-1.38,2.4-1.8c1.07-0.04,1.73-0.03,1.73-0.03s3.7-5.18,6.14-4.53c0,0,0.07-1.58,2.48-2.74
			c0,0,0.7-8.63,0.79-9.8l4.17,0.69c4.46,6.02-0.29,13.52-0.29,19.77c0,6.25,0.78,15.37,3.39,16.16c2.61,0.78,1.82,5.21,1.82,5.21
			c4.43-0.52,34.4,22.67,47.68,33.61s37.78,16.93,45.86,26.32C1106.37,632.94,1113.93,669.39,1113.93,669.39"/>
		<path id="Tracé_1052" class="st2" d="M1032.42,418.08c0.37,0.46,2.19,3.78,0.16,9.01c-0.48,1.24-0.8,7.95,0,10.34
			c0.8,2.39,5.96,13.72,5.37,22.86c-0.6,9.14-9.94,38.96-9.94,42.54s0.4,14.91-9.74,18.89c-10.14,3.98-30.42-1-40.55-4.97
			s-22.86-8.15-28.43-14.91s-14.31-20.28-14.31-21.87c0,0-3.58,5.77-7.95,4.57s-8.55-5.17-12.33-5.96c-3.78-0.8-8.15-8.08-9.34-9.21
			c-1.19-1.13-4.77-4.31-5.96-8.48c-0.7-2.67-0.7-5.48,0-8.15c0,0,12.92,1.39,17.1,5.96c4.18,4.57,15.9-2.79,17.29-8.55l2.98-13.52
			c0,0-7.95,6.96-10.93,7.16c0,0,12.13-9.15,13.72-16.5c0,0,12.92-6.96,15.31-18.89c2.39-11.93,7.75-26.04,7.75-26.04
			s3.67,29.53-11.85,42.54c0,0,13.04-2.39,16.42-3.58c3.38-1.19,6.44-4.77,6.44-4.77l-6.04,6.76c2.52-0.73,4.98-1.66,7.36-2.78
			c2.11-1.34,4.05-2.95,5.77-4.77l-1.19,2.98c0,0,11.13-3.98,11.73-26.84c0,0,11.73,17.69,6.76,27.04c4-2.46,6.12-7.09,5.37-11.73
			c0,0,5.37,4.57,3.78,11.13c0,0,6.96-7.35,6.76-11.13c0,0,1.39,7.75-0.8,10.93c0,0,4.97-7.16,3.98-11.33c0,0,4.77,4.97,2.59,10.54
			c0,0,4.57-9.94,2.39-15.31c0,0,4.37,7.75,2.39,14.11C1024.42,416.16,1030.03,415.1,1032.42,418.08 M898.85,450.06
			c-1.57,0.88,11.33,0,15,3.48c3.67,3.49,16.32-0.55,18.52-6.79c-3.85,3.4-9.16,4.64-14.12,3.3
			C909.64,447.86,903.12,447.67,898.85,450.06"/>
		<path id="Tracé_1053" class="st1" d="M1019.74,497.32c-2.44,0.54-6.91-0.61-6.91-0.61c-6.27,2.55-13.45-2.17-15.13-3.78
			c-1.69-1.61-6.94-2.65-6.94-2.65c0.12-2.11,0.13-3.4,3.6-4.71s14.74-9.77,16.35-10.42c1.61-0.66,4.27,1.64,4.27,1.64
			c1.43-0.45,2.88-0.81,4.35-1.09c1.45-0.19,4.95,5.67,5.76,7.33c0.43,1.04,0.12,2.23-0.75,2.93
			C1027.37,491.4,1022.17,496.77,1019.74,497.32"/>
	</g>
</g>
</svg>
